# xmcd CD database file
#
# Track frame offsets:
#	150
#	22283
#	35187
#	50101
#	66551
#	94495
#	119380
#	130159
#	144446
#	162342
#
# Disc length: 2444 seconds
#
# Revision: 0
# Processed by: cddbd v1.4PL0 Copyright (c) Steve Scherf et al.
# Submitted via: CDex 1.40Release
#
DISCID=a1098a0a
DTITLE=Bob Dylan - Greatest Hits
DYEAR=1900
DGENRE=Blues
TTITLE0=Rainy Day Women
TTITLE1=Blowin in the Wind
TTITLE2=The Times they are a-changin
TTITLE3=It ain't Me Babe
TTITLE4=Like a Rolling Stone
TTITLE5=Mr. Tambourine Man
TTITLE6=Subterranean Homesick Blues
TTITLE7=I Want You
TTITLE8=Positively 4th Street
TTITLE9=Just Like a Woman
EXTD=ID3G: 0
EXTT0=
EXTT1=
EXTT2=
EXTT3=
EXTT4=
EXTT5=
EXTT6=
EXTT7=
EXTT8=
EXTT9=
PLAYORDER=
